:FULLY-SPECIFIED
:FORCE-ALL-JOINTS-BE-3DOF
:DEGREES
1223
root -0.843739 14.6668 -17.0053 372.369 18.7976 363.097
lfemur 1.8331 0.0452254 -9.43647
ltibia 27.3474 0 0
lfoot 5.81765 31.6858 0
ltoes -26.9004 0 0
rfemur -58.7344 -18.0233 20.0779
rtibia 76.4709 0 0
rfoot -20.5041 -21.3513 0
rtoes 5.6561 0 0
lowerback 12.7807 0.981571 -4.95323
upperback -3.88077 0.412784 -0.454604
thorax -11.4926 0.531012 2.20949
lowerneck -1.20692 -8.91295 -10.1857
upperneck 0.576954 -11.938 10.9942
head 1.64972 -5.91905 4.58634
lclavicle 8.13775e-16 -3.97569e-16 0
lhumerus -62.2301 -27.7773 114.56
lradius 92.6993 0 0
lwrist 27.6374 0 0
lhand -24.2162 25.0122 0
lfingers 7.12502 0 0
lthumb 2.26854 54.9799 0
rclavicle 8.13775e-16 -3.97569e-16 0
rhumerus 63.7215 3.07649 -26.9423
rradius 93.1278 0 0
rwrist -11.4378 0 0
rhand -32.0316 -33.5231 0
rfingers 7.12502 0 0
rthumb -5.27923 -63.4373 0
1224
root -0.871568 14.7097 -16.8237 372.27 17.9789 362.53
lfemur 0.0736539 -0.249714 -9.50584
ltibia 28.0779 0 0
lfoot 5.74281 31.5414 0
ltoes -26.7742 0 0
rfemur -57.3885 -17.2307 20.6095
rtibia 75.9901 0 0
rfoot -20.8703 -21.9371 0
rtoes 4.99181 0 0
lowerback 12.5921 1.03858 -4.60243
upperback -3.91714 0.566941 -0.388959
thorax -11.4266 0.581288 2.04951
lowerneck -1.44784 -8.77136 -10.1029
upperneck 0.710645 -11.7383 11.0072
head 1.70325 -5.81135 4.57446
lclavicle 1.26446e-14 1.09083e-14 0
lhumerus -61.2957 -28.5371 115.166
lradius 91.7776 0 0
lwrist 24.4791 0 0
lhand -25.0285 24.6192 0
lfingers 7.12502 0 0
lthumb 1.48405 54.5937 0
rclavicle 1.26446e-14 1.09083e-14 0
rhumerus 63.7147 3.75409 -26.9597
rradius 93.3185 0 0
rwrist -11.646 0 0
rhand -32.0403 -33.7615 0
rfingers 7.12502 0 0
rthumb -5.28768 -63.6756 0
1225
root -0.895837 14.7513 -16.6457 372.147 17.2193 362.02
lfemur -1.61716 -0.533147 -9.57251
ltibia 29.2504 0 0
lfoot 5.52809 31.1272 0
ltoes -26.6947 0 0
rfemur -55.9612 -16.3902 21.1731
rtibia 75.5131 0 0
rfoot -21.2166 -22.4911 0
rtoes 4.21589 0 0
lowerback 12.3681 1.09665 -4.25266
upperback -3.86817 0.725161 -0.319606
thorax -11.2422 0.630565 1.89515
lowerneck -1.67461 -8.65364 -9.96979
upperneck 0.685533 -11.5597 10.9291
head 1.7014 -5.71633 4.53129
lclavicle -1.35507e-14 -2.68049e-14 0
lhumerus -60.1881 -29.4675 115.763
lradius 90.7519 0 0
lwrist 21.0804 0 0
lhand -26.0936 22.8726 0
lfingers 7.12502 0 0
lthumb 0.455345 52.8519 0
rclavicle -1.35507e-14 -2.68049e-14 0
rhumerus 63.8115 4.27494 -26.8406
rradius 93.4772 0 0
rwrist -11.9435 0 0
rhand -31.7442 -34.413 0
rfingers 7.12502 0 0
rthumb -5.00177 -64.3339 0
1226
root -0.917583 14.7968 -16.4691 371.989 16.5791 361.471
lfemur -3.21187 -0.800471 -9.63539
ltibia 30.828 0 0
lfoot 5.18822 30.4716 0
ltoes -26.667 0 0
rfemur -54.469 -15.5115 21.7624
rtibia 75.0469 0 0
rfoot -21.5387 -23.0063 0
rtoes 3.34147 0 0
lowerback 12.2803 1.11667 -3.76686
upperback -3.97993 0.84171 -0.262421
thorax -11.313 0.657071 1.65739
lowerneck -1.31767 -8.46539 -9.82138
upperneck 0.520841 -11.3244 10.834
head 1.55612 -5.61108 4.51416
lclavicle 2.20527e-16 6.41081e-15 0
lhumerus -59.4179 -30.3361 116.507
lradius 89.766 0 0
lwrist 17.4439 0 0
lhand -26.5441 22.6972 0
lfingers 7.12502 0 0
lthumb 0.0202224 52.6769 0
rclavicle 2.20527e-16 6.41081e-15 0
rhumerus 63.7991 5.02881 -26.7634
rradius 93.641 0 0
rwrist -12.2784 0 0
rhand -31.6303 -34.5497 0
rfingers 7.12502 0 0
rthumb -4.89178 -64.4733 0
